<svg width="20" height="20" viewBox="0 0 20 20" fill="none" xmlns="http://www.w3.org/2000/svg">
<path d="M19.7008 12.419C18.3651 17.7762 12.9385 21.0365 7.58005 19.7006C2.22386 18.365 -1.03679 12.9387 0.299519 7.58197C1.63466 2.22419 7.06124 -1.03634 12.418 0.299234C17.7761 1.63481 21.0365 7.06171 19.7006 12.4191L19.7007 12.419H19.7008Z" fill="#D95033"/>
<path d="M14.9739 8.22612C15.1819 6.86012 14.123 6.12585 12.6749 5.63601L13.1447 3.78565L11.9978 3.50499L11.5405 5.30663C11.2389 5.23278 10.9293 5.16319 10.6216 5.0942L11.0822 3.28067L9.93595 3L9.46594 4.84976C9.21643 4.79397 8.97136 4.73883 8.7336 4.68073L8.73493 4.67491L7.1533 4.28703L6.8482 5.49006C6.8482 5.49006 7.69912 5.68162 7.68119 5.69341C8.14563 5.80725 8.22962 6.10919 8.21567 6.34851L7.68058 8.45651C7.71256 8.46449 7.75404 8.47603 7.79982 8.49409C7.76155 8.48476 7.72084 8.47457 7.67859 8.46464L6.92857 11.4176C6.87181 11.5562 6.72774 11.7642 6.40302 11.6852C6.41452 11.7016 5.56943 11.4809 5.56943 11.4809L5 12.7702L6.49253 13.1357C6.77019 13.204 7.04229 13.2756 7.31024 13.3429L6.83564 15.2144L7.98123 15.4951L8.45124 13.6434C8.7642 13.7268 9.06792 13.8038 9.36525 13.8763L8.89683 15.7193L10.0438 16L10.5184 14.1319C12.4741 14.4954 13.9447 14.3489 14.5636 12.6116C15.0624 11.2129 14.5388 10.4061 13.5099 9.88001C14.2593 9.71027 14.8238 9.22621 14.9743 8.22627L14.9739 8.22602L14.9739 8.22612ZM12.3534 11.8348C11.999 13.2335 9.60102 12.4774 8.82357 12.2878L9.45338 9.80831C10.2308 9.99892 12.7239 10.3761 12.3535 11.8348H12.3534ZM12.7081 8.20585C12.3848 9.47812 10.3889 8.83175 9.74151 8.67326L10.3125 6.42448C10.96 6.58297 13.045 6.87879 12.7082 8.20585H12.7081Z" fill="white"/>
</svg>
