<svg width="153" height="51" viewBox="0 0 153 51" fill="none" xmlns="http://www.w3.org/2000/svg">
<path d="M96.2726 39.7445C95.5185 41.5263 94.6259 43.1664 93.5918 44.6743C92.1821 46.73 91.028 48.1529 90.1385 48.9431C88.7596 50.2401 87.2823 50.9043 85.7002 50.9421C84.5645 50.9421 83.1949 50.6116 81.6006 49.941C80.001 49.2736 78.5311 48.9431 77.187 48.9431C75.7773 48.9431 74.2655 49.2736 72.6484 49.941C71.0289 50.6116 69.7242 50.961 68.7267 50.9956C67.2096 51.0617 65.6975 50.3786 64.1881 48.9431C63.2247 48.0837 62.0198 46.6104 60.5763 44.5232C59.0275 42.2944 57.7542 39.7099 56.7567 36.7633C55.6884 33.5806 55.1528 30.4987 55.1528 27.5149C55.1528 24.0971 55.8749 21.1493 57.3212 18.679C58.4578 16.6948 59.9699 15.1295 61.8625 13.9805C63.755 12.8315 65.8 12.2459 68.0021 12.2085C69.2071 12.2085 70.7873 12.5897 72.7509 13.3389C74.709 14.0907 75.9663 14.4719 76.5176 14.4719C76.9297 14.4719 78.3264 14.0262 80.6942 13.1375C82.9333 12.3133 84.8231 11.9721 86.3712 12.1065C90.5663 12.4528 93.718 14.1442 95.814 17.1915C92.0621 19.5167 90.2062 22.7733 90.2431 26.9511C90.277 30.2053 91.4312 32.9132 93.6995 35.0633C94.7275 36.0613 95.8755 36.8325 97.1528 37.3803C96.8758 38.2019 96.5834 38.989 96.2726 39.7445ZM86.6513 1.02029C86.6513 3.57087 85.7403 5.95234 83.9243 8.15661C81.7329 10.777 79.0823 12.2913 76.2079 12.0523C76.1713 11.7463 76.1501 11.4243 76.1501 11.0859C76.1501 8.63732 77.1922 6.01688 79.0429 3.87431C79.9669 2.7895 81.142 1.88748 82.567 1.16793C83.989 0.459117 85.334 0.0671267 86.599 0C86.6359 0.340973 86.6513 0.682001 86.6513 1.02029Z" fill="black"/>
<path d="M9.99564 36.3897V27.5951C9.99564 27.0285 9.95253 26.5973 9.86631 26.3017C9.78009 25.9938 9.63844 25.7782 9.44136 25.6551C9.25659 25.5196 8.97945 25.4518 8.60993 25.4518C8.31431 25.4518 8.07412 25.5257 7.88935 25.6735C7.70459 25.8213 7.57526 26.0492 7.50135 26.3572C7.42745 26.6651 7.39049 27.0716 7.39049 27.5766H1.31181C1.31181 26.6528 1.49042 25.7967 1.84762 25.0084C2.20483 24.2077 2.71601 23.5118 3.38115 22.9206C4.0463 22.3293 4.84077 21.8736 5.76459 21.5533C6.70072 21.2208 7.7477 21.0545 8.90555 21.0545C10.2728 21.0545 11.4984 21.2762 12.5823 21.7196C13.6663 22.1507 14.5223 22.8467 15.1505 23.8074C15.791 24.7682 16.1113 26.0431 16.1113 27.632V36.3713C16.1113 37.6769 16.179 38.6685 16.3145 39.3459C16.45 40.0111 16.6348 40.5962 16.8688 41.1012V41.4153H10.8086C10.5253 40.7994 10.3159 40.048 10.1804 39.1612C10.0572 38.262 9.99564 37.3382 9.99564 36.3897ZM10.6793 29.2025L10.7162 32.5282H9.14574C8.76389 32.5282 8.43748 32.6206 8.1665 32.8054C7.89551 32.9778 7.66764 33.2118 7.48288 33.5075C7.31043 33.8031 7.18726 34.1356 7.11335 34.5052C7.03945 34.8624 7.00249 35.2319 7.00249 35.6137C7.00249 36.1557 7.05792 36.5499 7.16878 36.7962C7.29195 37.0426 7.43976 37.2027 7.61221 37.2766C7.79697 37.3382 8.00021 37.369 8.22193 37.369C8.68999 37.369 9.07799 37.2704 9.38593 37.0734C9.70618 36.864 9.93406 36.6176 10.0695 36.3343C10.205 36.051 10.242 35.8108 10.1804 35.6137L10.8086 38.0526C10.5992 38.5084 10.396 38.9579 10.1989 39.4014C10.0018 39.8325 9.75545 40.2328 9.45983 40.6023C9.16421 40.9595 8.80085 41.2428 8.36974 41.4522C7.93862 41.674 7.39665 41.7848 6.74383 41.7848C5.70916 41.7848 4.74839 41.5754 3.86153 41.1566C2.98699 40.7378 2.27874 40.0912 1.73677 39.2166C1.20711 38.3421 0.942288 37.2335 0.942288 35.8909C0.942288 34.9671 1.08394 34.1049 1.36724 33.3042C1.66286 32.4913 2.12477 31.7768 2.75296 31.161C3.38115 30.5451 4.2249 30.0647 5.2842 29.7198C6.35583 29.3749 7.66148 29.2025 9.20117 29.2025H10.6793ZM23.5129 25.2671V49.1014H17.4527V21.424H23.0879L23.5129 25.2671ZM33.49 30.4404V32.3065C33.49 33.8831 33.3484 35.2627 33.0651 36.4452C32.7941 37.6277 32.3815 38.6192 31.8272 39.4198C31.2729 40.2082 30.5831 40.7994 29.7578 41.1936C28.9449 41.5877 28.0026 41.7848 26.931 41.7848C25.9579 41.7848 25.1388 41.5323 24.4736 41.0273C23.8208 40.5099 23.2788 39.8017 22.8477 38.9025C22.4289 38.0033 22.0902 36.9748 21.8315 35.817C21.5729 34.6468 21.3573 33.4212 21.1849 32.1402V30.8654C21.3573 29.4858 21.5667 28.1986 21.813 27.0038C22.0594 25.809 22.3981 24.7682 22.8292 23.8813C23.2604 22.9945 23.8085 22.3047 24.4736 21.812C25.1388 21.307 25.9579 21.0545 26.931 21.0545C28.0149 21.0545 28.9633 21.2392 29.7763 21.6088C30.5893 21.966 31.2729 22.5264 31.8272 23.2901C32.3815 24.0538 32.7941 25.0269 33.0651 26.2093C33.3484 27.3918 33.49 28.8022 33.49 30.4404ZM27.4298 32.3065V30.4404C27.4298 29.5535 27.3929 28.8145 27.319 28.2233C27.2574 27.632 27.1465 27.1639 26.9864 26.8191C26.8263 26.4618 26.6169 26.2155 26.3582 26.08C26.0995 25.9322 25.767 25.8583 25.3605 25.8583C24.9047 25.8583 24.5167 25.9507 24.1965 26.1354C23.8885 26.3079 23.6422 26.585 23.4574 26.9669C23.285 27.3364 23.168 27.8045 23.1064 28.3711C23.0448 28.9253 23.0325 29.5843 23.0694 30.348V32.676C23.0078 33.5382 23.0325 34.2958 23.1433 34.9486C23.2542 35.5891 23.4882 36.0941 23.8454 36.4637C24.215 36.8209 24.7323 36.9995 25.3974 36.9995C25.8162 36.9995 26.155 36.9194 26.4136 36.7593C26.6846 36.5991 26.894 36.3343 27.0418 35.9648C27.1896 35.5953 27.2882 35.1087 27.3374 34.5052C27.399 33.9016 27.4298 33.1687 27.4298 32.3065ZM40.3558 25.2671V49.1014H34.2956V21.424H39.9308L40.3558 25.2671ZM50.333 30.4404V32.3065C50.333 33.8831 50.1913 35.2627 49.908 36.4452C49.637 37.6277 49.2244 38.6192 48.6701 39.4198C48.1158 40.2082 47.426 40.7994 46.6008 41.1936C45.7878 41.5877 44.8455 41.7848 43.7739 41.7848C42.8008 41.7848 41.9817 41.5323 41.3166 41.0273C40.6637 40.5099 40.1218 39.8017 39.6907 38.9025C39.2719 38.0033 38.9331 36.9748 38.6745 35.817C38.4158 34.6468 38.2002 33.4212 38.0278 32.1402V30.8654C38.2002 29.4858 38.4096 28.1986 38.656 27.0038C38.9023 25.809 39.2411 24.7682 39.6722 23.8813C40.1033 22.9945 40.6514 22.3047 41.3166 21.812C41.9817 21.307 42.8008 21.0545 43.7739 21.0545C44.8578 21.0545 45.8063 21.2392 46.6192 21.6088C47.4322 21.966 48.1158 22.5264 48.6701 23.2901C49.2244 24.0538 49.637 25.0269 49.908 26.2093C50.1913 27.3918 50.333 28.8022 50.333 30.4404ZM44.2728 32.3065V30.4404C44.2728 29.5535 44.2358 28.8145 44.1619 28.2233C44.1003 27.632 43.9895 27.1639 43.8293 26.8191C43.6692 26.4618 43.4598 26.2155 43.2011 26.08C42.9425 25.9322 42.6099 25.8583 42.2034 25.8583C41.7477 25.8583 41.3597 25.9507 41.0394 26.1354C40.7315 26.3079 40.4851 26.585 40.3004 26.9669C40.1279 27.3364 40.0109 27.8045 39.9493 28.3711C39.8877 28.9253 39.8754 29.5843 39.9124 30.348V32.676C39.8508 33.5382 39.8754 34.2958 39.9863 34.9486C40.0971 35.5891 40.3312 36.0941 40.6884 36.4637C41.0579 36.8209 41.5752 36.9995 42.2404 36.9995C42.6592 36.9995 42.9979 36.9194 43.2566 36.7593C43.5276 36.5991 43.7369 36.3343 43.8848 35.9648C44.0326 35.5953 44.1311 35.1087 44.1804 34.5052C44.242 33.9016 44.2728 33.1687 44.2728 32.3065ZM57.4389 13.0358V41.4153H51.3787V13.0358H57.4389ZM67.6119 41.7848C66.1831 41.7848 64.9083 41.5877 63.7874 41.1936C62.6788 40.7994 61.7488 40.2205 60.9974 39.4568C60.2461 38.6808 59.6733 37.7385 59.2792 36.6299C58.8973 35.5214 58.7064 34.2527 58.7064 32.8238V30.6436C58.7064 29.0424 58.8727 27.6443 59.2053 26.4495C59.5501 25.2547 60.0613 24.2632 60.7388 23.4749C61.4162 22.6742 62.2785 22.0707 63.3255 21.6642C64.3724 21.2577 65.6042 21.0545 67.0207 21.0545C68.2648 21.0545 69.3672 21.2392 70.3279 21.6088C71.301 21.9783 72.1201 22.551 72.7853 23.327C73.4627 24.0907 73.9801 25.07 74.3373 26.2648C74.6945 27.4472 74.8731 28.8514 74.8731 30.4774V33.3781H60.979V29.4796H68.9422V28.796C68.9545 27.9831 68.8806 27.3672 68.7205 26.9484C68.5727 26.5296 68.351 26.2463 68.0554 26.0985C67.7598 25.9384 67.3964 25.8583 66.9653 25.8583C66.4603 25.8583 66.0599 25.9445 65.7643 26.117C65.4687 26.2894 65.2531 26.5604 65.1176 26.9299C64.9822 27.2994 64.8898 27.7921 64.8405 28.408C64.8036 29.0239 64.7851 29.7691 64.7851 30.6436V32.8238C64.7851 33.6861 64.8528 34.3882 64.9883 34.9301C65.1361 35.4721 65.3455 35.8909 65.6165 36.1865C65.8998 36.4821 66.2385 36.6915 66.6327 36.8147C67.0392 36.9256 67.5011 36.981 68.0184 36.981C68.7575 36.981 69.478 36.8578 70.1801 36.6115C70.8822 36.3528 71.4796 35.934 71.9723 35.3551L74.4481 39.1242C74.1156 39.5553 73.6229 39.9803 72.97 40.3991C72.3172 40.8056 71.5412 41.1381 70.642 41.3968C69.7429 41.6555 68.7328 41.7848 67.6119 41.7848ZM89.6763 36.9995C90.0951 36.9995 90.4338 36.9256 90.6925 36.7777C90.9511 36.6299 91.1359 36.3651 91.2467 35.9833C91.3699 35.5891 91.4192 35.0225 91.3945 34.2835H97.0668C97.0914 35.934 96.7835 37.3197 96.1429 38.4406C95.5147 39.5492 94.6525 40.3868 93.5563 40.9534C92.46 41.5077 91.2159 41.7848 89.8241 41.7848C88.4691 41.7848 87.2867 41.5877 86.2766 41.1936C85.2666 40.7871 84.4228 40.1897 83.7454 39.4014C83.0802 38.6131 82.5814 37.6338 82.2488 36.4637C81.9162 35.2935 81.75 33.9324 81.75 32.3804V30.4774C81.75 28.9253 81.9162 27.5643 82.2488 26.3941C82.5814 25.2116 83.0802 24.2262 83.7454 23.4379C84.4228 22.6496 85.2604 22.0583 86.2582 21.6642C87.2682 21.2577 88.4445 21.0545 89.7871 21.0545C91.2406 21.0545 92.5154 21.3378 93.6117 21.9044C94.708 22.471 95.564 23.3455 96.1799 24.528C96.7958 25.7105 97.0914 27.2255 97.0668 29.0732H91.3945C91.4192 28.3095 91.3761 27.6936 91.2652 27.2255C91.1667 26.7452 90.9881 26.4003 90.7294 26.1909C90.4707 25.9691 90.1074 25.8583 89.6393 25.8583C89.1836 25.8583 88.8325 25.9445 88.5862 26.117C88.3398 26.2894 88.1612 26.5604 88.0504 26.9299C87.9395 27.2994 87.8717 27.7798 87.8471 28.3711C87.8348 28.95 87.8286 29.6521 87.8286 30.4774V32.3804C87.8286 33.218 87.841 33.9324 87.8656 34.5236C87.8902 35.1149 87.958 35.5953 88.0688 35.9648C88.1797 36.322 88.3583 36.5868 88.6046 36.7593C88.8633 36.9194 89.2205 36.9995 89.6763 36.9995ZM104.154 21.424V41.4153H98.094V21.424H104.154ZM97.7984 16.2691C97.7984 15.3823 98.1002 14.6555 98.7038 14.0889C99.3196 13.5223 100.114 13.239 101.087 13.239C102.073 13.239 102.867 13.5223 103.471 14.0889C104.074 14.6555 104.376 15.3823 104.376 16.2691C104.376 17.156 104.074 17.8827 103.471 18.4493C102.867 19.0159 102.073 19.2992 101.087 19.2992C100.114 19.2992 99.3196 19.0159 98.7038 18.4493C98.1002 17.8827 97.7984 17.156 97.7984 16.2691ZM115.159 36.8332V13.0358H121.237V41.4153H115.787L115.159 36.8332ZM105.163 32.3989V30.5328C105.163 28.8946 105.299 27.4842 105.57 26.3017C105.853 25.1069 106.265 24.1215 106.807 23.3455C107.362 22.5695 108.051 21.9968 108.877 21.6272C109.714 21.2454 110.669 21.0545 111.741 21.0545C112.652 21.0545 113.434 21.307 114.087 21.812C114.74 22.317 115.288 23.0191 115.731 23.9183C116.187 24.8175 116.557 25.8706 116.84 27.0777C117.136 28.2848 117.357 29.5782 117.505 30.9577V32.2141C117.333 33.5075 117.105 34.733 116.822 35.8909C116.538 37.0364 116.169 38.0526 115.713 38.9395C115.27 39.8263 114.715 40.5223 114.05 41.0273C113.397 41.5323 112.615 41.7848 111.704 41.7848C110.62 41.7848 109.671 41.5939 108.858 41.212C108.045 40.8179 107.362 40.2328 106.807 39.4568C106.265 38.6685 105.853 37.6892 105.57 36.5191C105.299 35.3489 105.163 33.9755 105.163 32.3989ZM111.223 30.5328V32.3989C111.223 33.2611 111.248 33.9878 111.297 34.5791C111.359 35.158 111.463 35.6261 111.611 35.9833C111.771 36.3405 111.987 36.5991 112.258 36.7593C112.529 36.9071 112.874 36.981 113.293 36.981C113.872 36.981 114.346 36.8085 114.715 36.4637C115.085 36.1188 115.35 35.6261 115.51 34.9856C115.67 34.3327 115.713 33.569 115.639 32.6945V30.4404C115.688 29.6767 115.664 29.0116 115.565 28.445C115.479 27.866 115.331 27.3857 115.122 27.0038C114.925 26.622 114.672 26.3387 114.364 26.1539C114.069 25.9568 113.724 25.8583 113.33 25.8583C112.935 25.8583 112.597 25.9384 112.313 26.0985C112.042 26.2463 111.827 26.4988 111.667 26.856C111.519 27.2132 111.408 27.6936 111.334 28.2972C111.26 28.9007 111.223 29.6459 111.223 30.5328ZM131.17 41.7848C129.741 41.7848 128.467 41.5877 127.346 41.1936C126.237 40.7994 125.307 40.2205 124.556 39.4568C123.804 38.6808 123.232 37.7385 122.837 36.6299C122.456 35.5214 122.265 34.2527 122.265 32.8238V30.6436C122.265 29.0424 122.431 27.6443 122.764 26.4495C123.108 25.2547 123.62 24.2632 124.297 23.4749C124.974 22.6742 125.837 22.0707 126.884 21.6642C127.931 21.2577 129.162 21.0545 130.579 21.0545C131.823 21.0545 132.925 21.2392 133.886 21.6088C134.859 21.9783 135.678 22.551 136.344 23.327C137.021 24.0907 137.538 25.07 137.896 26.2648C138.253 27.4472 138.431 28.8514 138.431 30.4774V33.3781H124.537V29.4796H132.5V28.796C132.513 27.9831 132.439 27.3672 132.279 26.9484C132.131 26.5296 131.909 26.2463 131.614 26.0985C131.318 25.9384 130.955 25.8583 130.524 25.8583C130.019 25.8583 129.618 25.9445 129.323 26.117C129.027 26.2894 128.811 26.5604 128.676 26.9299C128.54 27.2994 128.448 27.7921 128.399 28.408C128.362 29.0239 128.343 29.7691 128.343 30.6436V32.8238C128.343 33.6861 128.411 34.3882 128.547 34.9301C128.694 35.4721 128.904 35.8909 129.175 36.1865C129.458 36.4821 129.797 36.6915 130.191 36.8147C130.597 36.9256 131.059 36.981 131.577 36.981C132.316 36.981 133.036 36.8578 133.738 36.6115C134.44 36.3528 135.038 35.934 135.531 35.3551L138.006 39.1242C137.674 39.5553 137.181 39.9803 136.528 40.3991C135.875 40.8056 135.099 41.1381 134.2 41.3968C133.301 41.6555 132.291 41.7848 131.17 41.7848ZM145.168 26.3756V41.4153H139.089V21.424H144.743L145.168 26.3756ZM149.805 21.2762L149.731 27.0592C149.497 27.0346 149.189 27.0038 148.808 26.9669C148.426 26.9299 148.112 26.9114 147.865 26.9114C147.311 26.9114 146.843 26.9977 146.461 27.1701C146.079 27.3302 145.759 27.5766 145.5 27.9092C145.254 28.2294 145.075 28.6359 144.965 29.1286C144.854 29.6213 144.804 30.194 144.817 30.8469L143.801 30.1078C143.801 28.7652 143.905 27.5458 144.115 26.4495C144.336 25.341 144.644 24.3864 145.038 23.5857C145.433 22.7728 145.907 22.1507 146.461 21.7196C147.015 21.2762 147.631 21.0545 148.309 21.0545C148.567 21.0545 148.832 21.0729 149.103 21.1099C149.374 21.1469 149.608 21.2023 149.805 21.2762Z" fill="black"/>
<path fill-rule="evenodd" clip-rule="evenodd" d="M92.9471 34.305C93.1826 34.5726 93.4334 34.8325 93.6995 35.0848C94.6024 35.9613 95.5979 36.6629 96.6922 37.1918C96.5497 37.6475 96.3667 38.0709 96.1431 38.4621C95.5149 39.5707 94.6527 40.4083 93.5565 40.9749C92.4602 41.5292 91.2161 41.8063 89.8243 41.8063C88.4693 41.8063 87.2869 41.6092 86.2768 41.2151C85.2668 40.8086 84.423 40.2112 83.7456 39.4229C83.0804 38.6346 82.5816 37.6553 82.249 36.4852C81.9164 35.315 81.7501 33.9539 81.7501 32.4019V30.4989C81.7501 28.9468 81.9164 27.5858 82.249 26.4156C82.5816 25.2331 83.0804 24.2477 83.7456 23.4594C84.423 22.6711 85.2606 22.0798 86.2583 21.6857C87.2684 21.2792 88.4447 21.076 89.7873 21.076C90.4595 21.076 91.0935 21.1366 91.6893 21.2578C90.8624 22.654 90.3901 24.2236 90.2721 25.9657C90.0883 25.9084 89.8774 25.8798 89.6395 25.8798C89.1837 25.8798 88.8327 25.966 88.5863 26.1385C88.34 26.3109 88.1614 26.5819 88.0505 26.9514C87.9397 27.3209 87.8719 27.8013 87.8473 28.3926C87.835 28.9715 87.8288 29.6736 87.8288 30.4989V32.4019C87.8288 33.2395 87.8411 33.9539 87.8658 34.5451C87.8904 35.1364 87.9582 35.6168 88.069 35.9863C88.1799 36.3435 88.3585 36.6083 88.6048 36.7808C88.8635 36.9409 89.2207 37.021 89.6764 37.021C90.0952 37.021 90.434 36.9471 90.6926 36.7992C90.9513 36.6514 91.1361 36.3866 91.2469 36.0048C91.3701 35.6106 91.4194 35.044 91.3947 34.305H92.9471ZM57.4391 38.6371C57.1989 38.0364 56.9714 37.4189 56.7567 36.7847C55.6884 33.602 55.1528 30.5201 55.1528 27.5364C55.1528 24.1185 55.8749 21.1707 57.3212 18.7004C57.36 18.6326 57.3994 18.5652 57.4391 18.4983V38.6371ZM63.7875 41.2151C64.9084 41.6092 66.1833 41.8063 67.6121 41.8063C68.733 41.8063 69.7431 41.677 70.6422 41.4183C71.5414 41.1596 72.3174 40.8271 72.9702 40.4206C73.6231 40.0018 74.1158 39.5768 74.4483 39.1457L71.9725 35.3766C71.4798 35.9555 70.8824 36.3743 70.1803 36.633C69.4782 36.8793 68.7577 37.0025 68.0186 37.0025C67.5013 37.0025 67.0394 36.9471 66.6329 36.8362C66.2387 36.713 65.9 36.5036 65.6167 36.208C65.3457 35.9124 65.1363 35.4936 64.9885 34.9516C64.8833 34.5308 64.8189 34.0135 64.7954 33.3996H74.8733V30.4989C74.8733 28.8729 74.6947 27.4688 74.3375 26.2863C73.9803 25.0915 73.4629 24.1122 72.7855 23.3485C72.1203 22.5725 71.3012 21.9998 70.3281 21.6303C69.3674 21.2607 68.265 21.076 67.0209 21.076C65.6044 21.076 64.3726 21.2792 63.3256 21.6857C62.2787 22.0922 61.4164 22.6957 60.739 23.4964C60.0615 24.2847 59.5503 25.2762 59.2054 26.471C58.8729 27.6658 58.7066 29.0639 58.7066 30.6651V32.8453C58.7066 34.2742 58.8975 35.5429 59.2793 36.6514C59.6735 37.76 60.2463 38.7023 60.9976 39.4783C61.749 40.242 62.679 40.8209 63.7875 41.2151ZM64.7979 29.5011C64.8071 29.1086 64.8214 28.7514 64.8407 28.4295C64.89 27.8136 64.9823 27.3209 65.1178 26.9514C65.2533 26.5819 65.4689 26.3109 65.7645 26.1385C66.0601 25.966 66.4604 25.8798 66.9655 25.8798C67.3966 25.8798 67.7599 25.9599 68.0556 26.12C68.3512 26.2678 68.5729 26.5511 68.7207 26.9699C68.8808 27.3887 68.9547 28.0046 68.9424 28.8175V29.5011H64.7979Z" fill="#FFC702"/>
</svg>
